<?xml version="1.0" encoding="UTF-8" standalone="no"?>
<!-- Created with Inkscape (http://www.inkscape.org/) -->

<svg
   xmlns:dc="http://purl.org/dc/elements/1.1/"
   xmlns:cc="http://creativecommons.org/ns#"
   xmlns:rdf="http://www.w3.org/1999/02/22-rdf-syntax-ns#"
   xmlns:svg="http://www.w3.org/2000/svg"
   xmlns="http://www.w3.org/2000/svg"
   xmlns:sodipodi="http://sodipodi.sourceforge.net/DTD/sodipodi-0.dtd"
   xmlns:inkscape="http://www.inkscape.org/namespaces/inkscape"
   width="1024"
   height="1024"
   id="svg2999"
   version="1.1"
   inkscape:version="0.48.2 r9819"
   sodipodi:docname="macaw-white.svg">
  <defs
     id="defs3001" />
  <sodipodi:namedview
     id="base"
     pagecolor="#ffffff"
     bordercolor="#666666"
     borderopacity="1.0"
     inkscape:pageopacity="0"
     inkscape:pageshadow="2"
     inkscape:zoom="0.5"
     inkscape:cx="507.4"
     inkscape:cy="604"
     inkscape:current-layer="layer1"
     showgrid="true"
     inkscape:document-units="px"
     inkscape:grid-bbox="true"
     inkscape:window-width="1311"
     inkscape:window-height="1062"
     inkscape:window-x="0"
     inkscape:window-y="16"
     inkscape:window-maximized="0" />
  <metadata
     id="metadata3004">
    <rdf:RDF>
      <cc:Work
         rdf:about="">
        <dc:format>image/svg+xml</dc:format>
        <dc:type
           rdf:resource="http://purl.org/dc/dcmitype/StillImage" />
        <dc:title />
      </cc:Work>
    </rdf:RDF>
  </metadata>
  <g
     id="layer1"
     inkscape:label="Layer 1"
     inkscape:groupmode="layer"
     transform="translate(0,960)">
    <path
       inkscape:connector-curvature="0"
       id="path3114-7-9"
       d="M 865.72654,-84.913203 C 778.25992,-87.020603 710.0455,-186.6159 668.94027,-283.9834 627.83518,-381.3509 557.35731,-602.8016 408.21791,-607.102 l -48.57094,-1.4004 45.90887,-11.933 c 101.52327,-26.3885 157.67192,21.2581 236.04242,139.8233 78.37051,118.5652 122.65159,335.5715 224.12828,395.698897 z M 530.13875,-311.3509 c -7.77605,-81.0086 -37.84532,-161.7126 -55.03884,-201.8762 99.51641,71.3881 100.88827,281.5072 164.896,381.9637 53.53997,84.027897 103.22374,142.340497 210.69155,194.781107 -110.26315,9.21469 -235.76147,-116.00781 -266.31643,-170.660007 -14.59168,-26.0995 -46.45624,-123.2 -54.23228,-204.2086 z m -86.64304,122.2226 c -14.50339,-74.5846 11.97947,-165.5975 1.4488,-244.9798 17.99339,17.5702 41.10996,111.7398 42.16219,135.2144 7.13121,159.0884 28.47332,198.2479 94.23595,284.655597 C 461.83489,-60.835703 457.99916,-114.5437 443.49575,-189.1283 z m 381.62326,-97.2604 c -22.65499,-83.101 -97.05253,-230.7385 -198.36828,-326.214 -62.1071,-58.5268 -96.21423,-67.83 -188.12342,-51.3131 -39.83197,7.1581 -72.42189,9.2549 -72.42189,4.6596 0,-4.5953 37.847,-19.6609 84.10452,-33.4791 96.21292,-28.741 144.57846,-18.105 219.57478,26.0227 55.20057,32.4798 138.05493,178.1739 191.27564,326.7647 53.22083,148.5907 88.34021,161.5966 162.83968,228.7794 -84.43519,-29.7652 -176.22618,-92.1192 -198.88103,-175.2202 z M 358.39235,-405.0449 c -34.13613,21.0685 -56.74152,17.4692 -116.14537,18.2524 -25.6081,0 -46.56026,4.1197 -46.56026,9.155 0,5.0353 17.75821,41.9762 39.46262,82.0909 21.70439,40.1146 35.84234,72.9358 31.41779,72.9358 -21.37268,0 -147.38387,-74.6072 -180.748212,-107.0152 -78.0953054,-75.8567 -108.913667,-211.1712 -67.128465,-294.7417 10.776902,-21.5539 19.594428,-53.2049 19.594428,-70.3356 0,-17.1306 19.663292,-61.0637 43.696327,-97.6292 123.428222,-187.7921 442.100572,-226.238 600.412342,-72.4361 31.70269,30.7995 46.76341,52.4086 33.4682,48.0203 -13.29519,-4.3883 -39.85675,-11.3219 -59.02569,-15.4077 -28.30242,-6.0325 -25.35401,-1.9671 15.68772,21.6316 155.29647,89.2945 192.23999,287.8656 223.48045,333.9108 31.24034,46.0452 31.89198,46.9008 81.57941,95.273 -61.28125,-22.4587 -67.65565,-37.9522 -95.54987,-65.2231 -27.89423,-27.2644 -97.89292,-199.2155 -243.14058,-275.0099 -114.59877,-59.801 -154.28595,-58.1428 -215.66663,-7.2642 -24.00563,19.8984 -36.17133,28.4219 -81.03022,40.2514 13.52266,-8.2801 38.85387,-43.2176 41.73157,-48.5229 -11.45412,2.1807 -26.85511,-8.0011 -23.88743,-19.7565 2.96768,-11.7554 35.43666,-23.6308 35.49857,12.3643 3.73566,-4.4905 10.30943,-5.8677 10.01666,-15.7253 -0.81325,-27.4024 -26.03939,-36.5627 -59.02569,-20.7347 -26.03151,12.4908 -26.0344,12.4216 -0.37653,-8.9916 14.22152,-11.8686 34.2543,-15.6086 45.90887,-12.925 11.66268,2.6853 32.77353,21.5487 30.6738,43.0662 8.1479,-11.7709 39.37512,-26.4337 46.58702,-27.1312 50.73205,-4.9064 56.43576,5.7735 43.13085,-20.1578 -7.74299,-15.0912 -32.56421,-35.4255 -55.15833,-45.1873 -64.95435,-28.0639 -97.27526,-1.4025 -146.23416,82.4255 -14.32699,24.5308 -17.2035,30.99 -47.42453,59.5194 27.08727,-45.5568 20.43588,-64.1081 31.41032,-97.8755 12.52015,-38.5233 -24.46025,3.6792 -48.18752,57.0028 -12.3432,27.7397 -16.96044,35.4096 -31.62833,51.9464 5.62123,-14.344 8.64477,-17.6617 10.75474,-39.107 5.4166,-55.0534 -11.90377,-45.9502 -24.95579,13.1162 -4.75051,21.4985 -13.46994,31.8912 -17.85422,36.8719 0.585,-5.6006 3.84742,-10.1346 -0.13116,-26.6956 -9.98467,-41.6156 -43.7959,-50.5193 -84.973392,-22.3766 -27.955363,19.1061 -30.875683,31.4014 -32.284563,135.9234 -1.310367,97.2454 2.65274,120.489 25.774163,151.1491 31.659272,41.9821 64.769542,47.5592 64.769542,10.91 0,-13.927 7.05502,-46.2502 15.67788,-71.8295 7.64094,-22.6665 19.47716,-53.0814 26.2192,-60.282 -5.26587,18.2815 -6.51644,31.2719 -2.68973,47.9072 11.54647,50.1946 47.30831,50.4532 72.06302,0.5214 24.14886,-48.7102 19.38482,-61.1664 -37.27984,-97.4728 l -41.19848,-26.3968 45.90887,8.6975 c 137.57274,26.0632 202.07182,109.9994 178.50011,263.1421 -23.57172,153.1427 -23.30977,187.1006 -8.44987,239.742 -64.70959,-83.9502 -53.20995,-242.9065 -46.68969,-269.5957 z M 97.403448,-687.6357 c -4.59536,-7.7557 0.67026,-10.0493 12.342652,-5.3771 22.72385,9.0956 26.88149,18.9023 8.01385,18.9023 -6.78847,0 -15.94899,-6.0864 -20.356502,-13.5252 z"
       style="fill:#ffffff"
       sodipodi:nodetypes="czscszczcscszzcsczcsssszczcccsssssssssszczsscczcsssscsssscsscsscsssssscssscsszccssss" />
  </g>
</svg>
